<?xml version="1.0" encoding="UTF-8" standalone="no"?>
<svg
   xmlns:dc="http://purl.org/dc/elements/1.1/"
   xmlns:cc="http://creativecommons.org/ns#"
   xmlns:rdf="http://www.w3.org/1999/02/22-rdf-syntax-ns#"
   xmlns:svg="http://www.w3.org/2000/svg"
   xmlns="http://www.w3.org/2000/svg"
   xmlns:sodipodi="http://sodipodi.sourceforge.net/DTD/sodipodi-0.dtd"
   xmlns:inkscape="http://www.inkscape.org/namespaces/inkscape"
   version="1.1"
   x="0px"
   y="0px"
   viewBox="0 0 75.300003 92.900002"
   xml:space="preserve"
   id="svg3392"
   inkscape:version="0.91 r13725"
   sodipodi:docname="stack-exchange-logo.svg"
   width="75.300003"
   height="92.900002"><metadata
     id="metadata3408"><rdf:RDF><cc:Work
         rdf:about=""><dc:format>image/svg+xml</dc:format><dc:type
           rdf:resource="http://purl.org/dc/dcmitype/StillImage" /><dc:title></dc:title></cc:Work></rdf:RDF></metadata><defs
     id="defs3406" /><sodipodi:namedview
     pagecolor="#ffffff"
     bordercolor="#666666"
     borderopacity="1"
     objecttolerance="10"
     gridtolerance="10"
     guidetolerance="10"
     inkscape:pageopacity="0"
     inkscape:pageshadow="2"
     inkscape:window-width="1280"
     inkscape:window-height="602"
     id="namedview3404"
     showgrid="false"
     fit-margin-top="0"
     fit-margin-left="0"
     fit-margin-right="0"
     fit-margin-bottom="0"
     inkscape:zoom="2.7166667"
     inkscape:cx="37.6"
     inkscape:cy="49.9"
     inkscape:window-x="0"
     inkscape:window-y="27"
     inkscape:window-maximized="1"
     inkscape:current-layer="svg3392" /><style
     type="text/css"
     id="style3394">
	.st0{fill:#376DB6;}
	.st1{fill:#4CA2DA;}
	.st2{fill:#91D8F4;}
	.st3{fill:#1E5397;}
</style><rect
     x="0"
     y="40.5"
     class="st0"
     width="74.800003"
     height="15.4"
     id="rect3396"
     style="fill:#376db6" /><rect
     x="0"
     y="20.599998"
     class="st1"
     width="74.800003"
     height="15.4"
     id="rect3398"
     style="fill:#4ca2da" /><path
     class="st2"
     d="M 63.1,0 12,0 C 5.4000004,0 3.8146973e-7,5.5 3.8146973e-7,12.3 l 0,4 L 74.8,16.3 l 0,-4 C 74.8,5.5 69.6,0 63.1,0 Z"
     id="path3400"
     inkscape:connector-curvature="0"
     style="fill:#91d8f4" /><path
     class="st3"
     d="m 3.8146973e-7,60.3 0,4 C 3.8146973e-7,71.1 5.4000004,76.6 12,76.6 l 32,0 0,16.3 15.8,-16.3 3.5,0 c 6.6,0 12,-5.5 12,-12.3 l 0,-4 L 3.8146973e-7,60.3 Z"
     id="path3402"
     inkscape:connector-curvature="0"
     style="fill:#1e5397" /></svg>