<?xml version="1.0" encoding="UTF-8" standalone="no"?>
<!-- Created with Inkscape (http://www.inkscape.org/) -->

<svg
   xmlns:dc="http://purl.org/dc/elements/1.1/"
   xmlns:cc="http://creativecommons.org/ns#"
   xmlns:rdf="http://www.w3.org/1999/02/22-rdf-syntax-ns#"
   xmlns:svg="http://www.w3.org/2000/svg"
   xmlns="http://www.w3.org/2000/svg"
   xmlns:sodipodi="http://sodipodi.sourceforge.net/DTD/sodipodi-0.dtd"
   xmlns:inkscape="http://www.inkscape.org/namespaces/inkscape"
   width="50.598999"
   height="38.301071"
   id="svg3125"
   version="1.1"
   inkscape:version="0.48.4 r9939"
   sodipodi:docname="New document 6">
  <defs
     id="defs3127" />
  <sodipodi:namedview
     id="base"
     pagecolor="#ffffff"
     bordercolor="#666666"
     borderopacity="1.0"
     inkscape:pageopacity="0.0"
     inkscape:pageshadow="2"
     inkscape:zoom="2.8"
     inkscape:cx="25.2995"
     inkscape:cy="27.87998"
     inkscape:document-units="px"
     inkscape:current-layer="layer1"
     showgrid="false"
     fit-margin-top="0"
     fit-margin-left="0"
     fit-margin-right="0"
     fit-margin-bottom="0"
     inkscape:window-width="501"
     inkscape:window-height="435"
     inkscape:window-x="3"
     inkscape:window-y="66"
     inkscape:window-maximized="0" />
  <metadata
     id="metadata3130">
    <rdf:RDF>
      <cc:Work
         rdf:about="">
        <dc:format>image/svg+xml</dc:format>
        <dc:type
           rdf:resource="http://purl.org/dc/dcmitype/StillImage" />
        <dc:title></dc:title>
      </cc:Work>
    </rdf:RDF>
  </metadata>
  <g
     inkscape:label="Layer 1"
     inkscape:groupmode="layer"
     id="layer1"
     transform="translate(-349.7005,-513.21165)">
    <g
       transform="matrix(1.25,0,0,1.25,343.513,498.38018)"
       id="#1e93d1ff">
      <path
         style="fill:#1e93d1"
         inkscape:connector-curvature="0"
         d="m 21.22,12.14 c 2.86,-0.4 5.81,-0.38 8.65,0.17 1.1,4.42 0.33,9.11 0.45,13.63 -3.37,-1.25 -8.67,-2.06 -10.2,2.2 -0.12,-4.06 -0.13,-8.13 -0.07,-12.2 0.24,-1.22 -0.26,-3.2 1.17,-3.8 z"
         id="path6" />
    </g>
    <g
       transform="matrix(1.25,0,0,1.25,343.513,498.38018)"
       id="#fbd366ff">
      <path
         style="fill:#fbd366"
         inkscape:connector-curvature="0"
         d="m 5.37,21.24 c 2.75,-2.37 7.54,-2.36 10.33,-0.06 0.42,6.54 -0.03,13.1 0.31,19.65 l -0.87,0.22 C 15.13,38.5 16.17,34.89 13.66,33.2 11.23,32.65 8.67,32.73 6.23,33.19 5.54,35.72 5.67,38.36 5.88,40.95 L 4.95,40.98 C 5.46,34.4 4.92,27.81 5.37,21.24 z"
         id="path20" />
    </g>
    <g
       transform="matrix(1.25,0,0,1.25,343.513,498.38018)"
       id="#b91f24ff">
      <path
         style="fill:#b91f24"
         inkscape:connector-curvature="0"
         d="m 35.28,24.35 c 3.17,-0.29 6.37,-0.31 9.54,-0.02 1.02,3.12 0.4,6.46 0.56,9.67 -0.15,2.62 0.43,5.38 -0.46,7.9 -3.08,0.71 -6.61,0.94 -9.62,-0.12 -0.88,-2.15 -0.55,-4.52 -0.63,-6.78 0.11,-3.55 -0.31,-7.18 0.61,-10.65 z"
         id="path23" />
    </g>
    <g
       transform="matrix(1.25,0,0,1.25,343.513,498.38018)"
       id="#1e85c8ff">
      <path
         style="fill:#1e85c8"
         inkscape:connector-curvature="0"
         d="m 20.12,28.14 c 1.53,-4.26 6.83,-3.45 10.2,-2.2 -0.05,5.35 0.49,10.77 -0.3,16.07 -3.13,0.48 -6.62,0.95 -9.6,-0.33 -0.87,-4.43 -0.27,-9.04 -0.3,-13.54 z"
         id="path39" />
    </g>
    <g
       transform="matrix(1.25,0,0,1.25,343.513,498.38018)"
       id="#fac942ff">
      <path
         style="fill:#fac942"
         inkscape:connector-curvature="0"
         d="m 6.23,33.19 c 2.44,-0.46 5,-0.54 7.43,0.01 2.51,1.69 1.47,5.3 1.48,7.85 l -0.16,0.99 C 12.03,42.5 8.96,42.65 6.04,41.95 l -0.16,-1 C 5.67,38.36 5.54,35.72 6.23,33.19 z"
         id="path42" />
    </g>
  </g>
</svg>
