<?xml version="1.0" encoding="UTF-8" standalone="no"?>
<!-- Created with Inkscape (http://www.inkscape.org/) -->

<svg
   xmlns:dc="http://purl.org/dc/elements/1.1/"
   xmlns:cc="http://creativecommons.org/ns#"
   xmlns:rdf="http://www.w3.org/1999/02/22-rdf-syntax-ns#"
   xmlns:svg="http://www.w3.org/2000/svg"
   xmlns="http://www.w3.org/2000/svg"
   xmlns:sodipodi="http://sodipodi.sourceforge.net/DTD/sodipodi-0.dtd"
   xmlns:inkscape="http://www.inkscape.org/namespaces/inkscape"
   width="40.641129mm"
   height="40.639999mm"
   viewBox="0 0 144.004 144"
   id="svg3479"
   version="1.1"
   inkscape:version="0.91 r13725"
   sodipodi:docname="drawing.svg">
  <defs
     id="defs3481" />
  <sodipodi:namedview
     id="base"
     pagecolor="#ffffff"
     bordercolor="#666666"
     borderopacity="1.0"
     inkscape:pageopacity="0.0"
     inkscape:pageshadow="2"
     inkscape:zoom="1.33"
     inkscape:cx="118.43057"
     inkscape:cy="39.218043"
     inkscape:document-units="px"
     inkscape:current-layer="layer1"
     showgrid="false"
     fit-margin-top="0"
     fit-margin-left="0"
     fit-margin-right="0"
     fit-margin-bottom="0"
     inkscape:window-width="1280"
     inkscape:window-height="602"
     inkscape:window-x="0"
     inkscape:window-y="27"
     inkscape:window-maximized="1" />
  <metadata
     id="metadata3484">
    <rdf:RDF>
      <cc:Work
         rdf:about="">
        <dc:format>image/svg+xml</dc:format>
        <dc:type
           rdf:resource="http://purl.org/dc/dcmitype/StillImage" />
        <dc:title></dc:title>
      </cc:Work>
    </rdf:RDF>
  </metadata>
  <g
     inkscape:label="Layer 1"
     inkscape:groupmode="layer"
     id="layer1"
     transform="translate(-256.56943,-397.50506)">
    <path
       inkscape:connector-curvature="0"
       style="fill:#0077b5"
       d="m 389.91443,397.50506 -122.716,0 c -5.864,0 -10.629,4.648 -10.629,10.376 l 0,123.234 c 0,5.734 4.765,10.39 10.629,10.39 l 122.716,0 c 5.874,0 10.659,-4.655 10.659,-10.39 l 0,-123.234 c 0,-5.728 -4.785,-10.376 -10.659,-10.376 z"
       id="path3436" />
    <path
       inkscape:connector-curvature="0"
       style="fill:#ffffff"
       d="m 277.92043,451.49006 21.359,0 0,68.722 -21.359,0 0,-68.722 z m 10.684,-34.16 c 6.828,0 12.377,5.549 12.377,12.38 0,6.837 -5.549,12.386 -12.377,12.386 -6.846,0 -12.387,-5.549 -12.387,-12.386 0.001,-6.83 5.542,-12.38 12.387,-12.38"
       id="path3438" />
    <path
       inkscape:connector-curvature="0"
       style="fill:#ffffff"
       d="m 312.67643,451.49006 20.485,0 0,9.39 0.286,0 c 2.852,-5.403 9.818,-11.099 20.209,-11.099 21.628,0 25.621,14.234 25.621,32.736 l 0,37.694 -21.344,0 0,-33.42 c 0,-7.969 -0.146,-18.22 -11.099,-18.22 -11.113,0 -12.819,8.681 -12.819,17.644 l 0,33.996 -21.34,0 0,-68.721 z"
       id="path3440" />
  </g>
</svg>
