<?xml version="1.0" encoding="UTF-8" standalone="no"?>
<svg
   xmlns:dc="http://purl.org/dc/elements/1.1/"
   xmlns:cc="http://creativecommons.org/ns#"
   xmlns:rdf="http://www.w3.org/1999/02/22-rdf-syntax-ns#"
   xmlns:svg="http://www.w3.org/2000/svg"
   xmlns="http://www.w3.org/2000/svg"
   xmlns:sodipodi="http://sodipodi.sourceforge.net/DTD/sodipodi-0.dtd"
   xmlns:inkscape="http://www.inkscape.org/namespaces/inkscape"
   width="319.125"
   height="273.95758"
   viewBox="0 0 255.3 219.16606"
   id="svg3041"
   version="1.1"
   inkscape:version="0.48.4 r9939"
   sodipodi:docname="Medium_Logo_2015-2.svg">
  <metadata
     id="metadata3057">
    <rdf:RDF>
      <cc:Work
         rdf:about="">
        <dc:format>image/svg+xml</dc:format>
        <dc:type
           rdf:resource="http://purl.org/dc/dcmitype/StillImage" />
        <dc:title></dc:title>
      </cc:Work>
    </rdf:RDF>
  </metadata>
  <defs
     id="defs3055" />
  <sodipodi:namedview
     pagecolor="#ffffff"
     bordercolor="#666666"
     borderopacity="1"
     objecttolerance="10"
     gridtolerance="10"
     guidetolerance="10"
     inkscape:pageopacity="0"
     inkscape:pageshadow="2"
     inkscape:window-width="1215"
     inkscape:window-height="714"
     id="namedview3053"
     showgrid="false"
     inkscape:zoom="1"
     inkscape:cx="427.18201"
     inkscape:cy="116.30299"
     inkscape:window-x="65"
     inkscape:window-y="24"
     inkscape:window-maximized="1"
     inkscape:current-layer="svg3041"
     fit-margin-top="0"
     fit-margin-left="0"
     fit-margin-right="0"
     fit-margin-bottom="0" />
  <path
     d="m 0,-18.414167 h 256 v 66.19 c -0.17,-1.53 -0.52,-4.6 -0.7,-6.13 -1.09,-0.71 -2.2,-1.38 -3.34,-2 -26.06,-12.97 -52.13,-25.93 -78.17,-38.93999967 -1.18,-0.77 -2.42,-0.91 -3.73,-0.42 -2.11,2.11999997 -3.35,4.88999997 -4.97,7.36999997 -16.85,27.2199997 -33.6,54.5099997 -50.5,81.6899997 -9.31,-15.43 -18.93,-30.67 -28.33,-46.05 -1.3,-2.54 -4.21,-3.33 -6.54,-4.59 -23.13,-11.47 -46.22,-23.03 -69.35,-34.5099997 -2.72,-1.32 -5.38,-2.95 -8.43,-3.39999997 C 1.46,1.2858333 0.49,2.2558333 0,2.7458333 V -18.414167 z"
     id="path3043"
     inkscape:connector-curvature="0"
     style="fill:#ffffff" />
  <path
     d="m 165.09,7.6558333 c 1.62,-2.48 2.86,-5.25 4.97,-7.36999997 1.31,-0.49 2.55,-0.35 3.73,0.42 26.04,13.00999967 52.11,25.96999967 78.17,38.93999967 1.14,0.62 2.25,1.29 3.34,2 -26.49,43.52 -53.54,86.689997 -80.15,130.129997 -1.54,2.68 -3.31,5.22 -5.4,7.49 -14.65,-23.54 -29.14,-47.19 -43.75,-70.76 -3.8,-6.39 -8.1,-12.489997 -11.41,-19.159997 16.9,-27.18 33.65,-54.47 50.5,-81.6899997 z"
     id="path3045"
     inkscape:connector-curvature="0"
     style="fill:#0be370" />
  <path
     d="m 0,2.7458333 c 0.49,-0.49 1.46,-1.46 1.94,-1.94999997 C 4.99,1.2458333 7.65,2.8758333 10.37,4.1958333 33.5,15.675833 56.59,27.235833 79.72,38.705833 c 2.33,1.26 5.24,2.05 6.54,4.59 9.4,15.38 19.02,30.62 28.33,46.05 3.31,6.67 7.61,12.769997 11.41,19.159997 14.61,23.57 29.1,47.22 43.75,70.76 -28.13,-14.15 -56.41,-28.02 -84.53,-42.2 0,25.53 0.02,51.07 -0.01,76.6 0.09,2.19 -0.87,4.79 -3.21,5.4 -2.15,0.47 -4.09,-0.82 -5.96,-1.65 -23.54,-11.8 -47.14,-23.47 -70.69,-35.24 -2.85,-1.29 -4.71,-4.06 -5.35,-7.06 V 2.7458333 z"
     id="path3047"
     inkscape:connector-curvature="0"
     style="fill:#04b06b" />
  <path
     d="m 255.3,41.645833 c 0.18,1.53 0.53,4.6 0.7,6.13 V 214.56583 c -0.74,2.98 -3.63,5.91 -6.84,4.09 -26.53,-12.99 -52.85,-26.43 -79.41,-39.39 2.09,-2.27 3.86,-4.81 5.4,-7.49 26.61,-43.44 53.66,-86.609997 80.15,-130.129997 z"
     id="path3049"
     inkscape:connector-curvature="0"
     style="fill:#32fc8d" />
  <path
     d="m 85.22,137.06583 c 28.12,14.18 56.4,28.05 84.53,42.2 26.56,12.96 52.88,26.4 79.41,39.39 3.21,1.82 6.1,-1.11 6.84,-4.09 v 23.02 H 0 v -62.47 c 0.64,3 2.5,5.77 5.35,7.06 23.55,11.77 47.15,23.44 70.69,35.24 1.87,0.83 3.81,2.12 5.96,1.65 2.34,-0.61 3.3,-3.21 3.21,-5.4 0.03,-25.53 0.01,-51.07 0.01,-76.6 z"
     id="path3051"
     inkscape:connector-curvature="0"
     style="fill:#ffffff" />
</svg>
